<svg xmlns="http://www.w3.org/2000/svg" version="1.1" xmlns:xlink="http://www.w3.org/1999/xlink" xmlns:svgjs="http://svgjs.dev/svgjs" width="2000" height="1999" viewBox="0 0 2000 1999"><g transform="matrix(1,0,0,1,-0.431486880466764,-0.4312711370263287)"><svg viewBox="0 0 343 343" data-background-color="#ffffff" preserveAspectRatio="xMidYMid meet" height="1999" width="2000" xmlns="http://www.w3.org/2000/svg" xmlns:xlink="http://www.w3.org/1999/xlink"><g id="tight-bounds" transform="matrix(1,0,0,1,0.0740000000000407,0.07400000000001228)"><svg viewBox="0 0 342.85155851775386 342.85155851775386" height="342.85155851775386" width="342.85155851775386"><g><svg></svg></g><g><svg viewBox="0 0 342.85155851775386 342.85155851775386" height="342.85155851775386" width="342.85155851775386"><g><path d="M0 171.426c0-94.676 76.75-171.426 171.426-171.426 94.676 0 171.426 76.75 171.426 171.426 0 94.676-76.75 171.426-171.426 171.426-94.676 0-171.426-76.75-171.426-171.426zM171.426 339.867c93.028 0 168.441-75.414 168.441-168.441 0-93.028-75.414-168.441-168.441-168.441-93.028 0-168.441 75.414-168.441 168.441 0 93.028 75.414 168.441 168.441 168.441z" data-fill-palette-color="tertiary" fill="#7f5af0" stroke="transparent"></path><ellipse rx="164.56874808852186" ry="164.56874808852186" cx="171.42577925887693" cy="171.42577925887693" fill="#7f5af0" stroke="transparent" stroke-width="0" fill-opacity="1" data-fill-palette-color="tertiary"></ellipse></g><g transform="matrix(1,0,0,1,64.84655864529837,133.3632813413007)"><svg viewBox="0 0 213.1584412271571 76.12499583515242" height="76.12499583515242" width="213.1584412271571"><g><svg viewBox="0 0 213.1584412271571 76.12499583515242" height="76.12499583515242" width="213.1584412271571"><g><svg viewBox="0 0 213.1584412271571 76.12499583515242" height="76.12499583515242" width="213.1584412271571"><g transform="matrix(1,0,0,1,0,43.03027958452534)"><svg viewBox="0 0 213.1584412271571 33.09471625062707" height="33.09471625062707" width="213.1584412271571"><g id="textblocktransform"><svg viewBox="0 0 213.1584412271571 33.09471625062707" height="33.09471625062707" width="213.1584412271571" id="textblock"><g><svg viewBox="0 0 213.1584412271571 33.09471625062707" height="33.09471625062707" width="213.1584412271571"><g transform="matrix(1,0,0,1,0,0)"><svg width="213.1584412271571" viewBox="2.95 -36.55 299.47 46.5" height="33.09471625062707" data-palette-color="#000000"><path d="M2.95-18.05L2.95-18.05Q2.95-21.8 4.38-25.13 5.8-28.45 8.35-31.03 10.9-33.6 14.23-35.08 17.55-36.55 21.4-36.55L21.4-36.55Q25.2-36.55 28.53-35.08 31.85-33.6 34.43-31.03 37-28.45 38.45-25.13 39.9-21.8 39.9-18.05L39.9-18.05Q39.9-14.2 38.45-10.85 37-7.5 34.43-4.98 31.85-2.45 28.53-1.03 25.2 0.4 21.4 0.4L21.4 0.4Q17.55 0.4 14.23-1 10.9-2.4 8.35-4.9 5.8-7.4 4.38-10.75 2.95-14.1 2.95-18.05ZM7.95-18L7.95-18Q7.95-15.15 9-12.68 10.05-10.2 11.9-8.3 13.75-6.4 16.2-5.33 18.65-4.25 21.5-4.25L21.5-4.25Q24.3-4.25 26.75-5.33 29.2-6.4 31-8.3 32.8-10.2 33.85-12.68 34.9-15.15 34.9-18.05L34.9-18.05Q34.9-20.9 33.85-23.43 32.8-25.95 30.95-27.85 29.1-29.75 26.65-30.83 24.2-31.9 21.4-31.9L21.4-31.9Q18.55-31.9 16.1-30.8 13.65-29.7 11.8-27.8 9.95-25.9 8.95-23.38 7.95-20.85 7.95-18ZM48.9-20.6L48.9-29.8 53.55-29.8 53.55-20.6 59.25-20.6 59.25-16.95 53.55-16.95 53.55 0 48.9 0 48.9-16.95 45.1-16.95 45.1-20.6 48.9-20.6ZM73.45 0.5L73.45 0.5Q70.55 0.5 68.17-0.75 65.8-2 64.42-4.42 63.05-6.85 63.05-10.35L63.05-10.35Q63.05-13.8 64.5-16.32 65.95-18.85 68.37-20.2 70.8-21.55 73.7-21.55L73.7-21.55Q76.59-21.55 78.59-20.23 80.59-18.9 81.65-17.1L81.65-17.1 81.34-16.3 81.8-20.7 86.09-20.7 86.09 0 81.45 0 81.45-5.4 81.95-4.2Q81.75-3.7 81.07-2.93 80.4-2.15 79.27-1.35 78.15-0.55 76.7-0.03 75.25 0.5 73.45 0.5ZM74.7-3.35L74.7-3.35Q76.45-3.35 77.84-4 79.25-4.65 80.17-5.83 81.09-7 81.45-8.65L81.45-8.65 81.45-12.7Q81.05-14.2 80.05-15.33 79.05-16.45 77.65-17.07 76.25-17.7 74.55-17.7L74.55-17.7Q72.7-17.7 71.15-16.8 69.59-15.9 68.67-14.3 67.75-12.7 67.75-10.55L67.75-10.55Q67.75-8.55 68.7-6.9 69.64-5.25 71.25-4.3 72.84-3.35 74.7-3.35ZM102.79 0.6L102.54 0.6 91.04-20.7 96.54-20.7 104.34-4.25 101.49-4.35 108.64-20.7 113.84-20.7 102.79 0.6ZM118.84 0L118.84-20.7 123.49-20.7 123.49 0 118.84 0ZM118.49-28.2L118.49-28.2Q118.49-29.3 119.37-30.05 120.24-30.8 121.29-30.8L121.29-30.8Q122.34-30.8 123.17-30.05 123.99-29.3 123.99-28.2L123.99-28.2Q123.99-27.05 123.17-26.33 122.34-25.6 121.29-25.6L121.29-25.6Q120.24-25.6 119.37-26.35 118.49-27.1 118.49-28.2ZM129.74-10.55L129.74-10.55Q129.74-13.65 131.21-16.15 132.69-18.65 135.29-20.1 137.89-21.55 141.19-21.55L141.19-21.55Q144.59-21.55 147.14-20.1 149.69-18.65 151.09-16.15 152.49-13.65 152.49-10.55L152.49-10.55Q152.49-7.45 151.09-4.93 149.69-2.4 147.11-0.95 144.54 0.5 141.14 0.5L141.14 0.5Q137.84 0.5 135.26-0.88 132.69-2.25 131.21-4.73 129.74-7.2 129.74-10.55ZM134.39-10.5L134.39-10.5Q134.39-8.5 135.29-6.88 136.19-5.25 137.71-4.3 139.24-3.35 141.09-3.35L141.09-3.35Q143.04-3.35 144.56-4.3 146.09-5.25 146.94-6.88 147.79-8.5 147.79-10.5L147.79-10.5Q147.79-12.5 146.94-14.13 146.09-15.75 144.56-16.73 143.04-17.7 141.09-17.7L141.09-17.7Q139.19-17.7 137.66-16.7 136.14-15.7 135.26-14.08 134.39-12.45 134.39-10.5ZM175.73 0L175.73-36.15 180.58-36.15 180.58-4.65 198.93-4.65 198.93 0 175.73 0ZM203.88-10.55L203.88-10.55Q203.88-13.65 205.36-16.15 206.83-18.65 209.43-20.1 212.03-21.55 215.33-21.55L215.33-21.55Q218.73-21.55 221.28-20.1 223.83-18.65 225.23-16.15 226.63-13.65 226.63-10.55L226.63-10.55Q226.63-7.45 225.23-4.93 223.83-2.4 221.26-0.95 218.68 0.5 215.28 0.5L215.28 0.5Q211.98 0.5 209.41-0.88 206.83-2.25 205.36-4.73 203.88-7.2 203.88-10.55ZM208.53-10.5L208.53-10.5Q208.53-8.5 209.43-6.88 210.33-5.25 211.86-4.3 213.38-3.35 215.23-3.35L215.23-3.35Q217.18-3.35 218.71-4.3 220.23-5.25 221.08-6.88 221.93-8.5 221.93-10.5L221.93-10.5Q221.93-12.5 221.08-14.13 220.23-15.75 218.71-16.73 217.18-17.7 215.23-17.7L215.23-17.7Q213.33-17.7 211.81-16.7 210.28-15.7 209.41-14.08 208.53-12.45 208.53-10.5ZM245.13 0.5L245.13 0.5Q242.78 0.5 240.6-0.6 238.43-1.7 237.23-3.55L237.23-3.55 237.53-5 237.53 9.95 232.93 9.95 232.93-21 236.93-21 237.58-15.7 237.08-17.15Q238.58-19.05 240.88-20.3 243.18-21.55 246.03-21.55L246.03-21.55Q248.93-21.55 251.25-20.15 253.58-18.75 254.93-16.25 256.28-13.75 256.28-10.4L256.28-10.4Q256.28-7.05 254.83-4.6 253.38-2.15 250.85-0.83 248.33 0.5 245.13 0.5ZM244.23-3.2L244.23-3.2Q246.23-3.2 247.9-4.13 249.58-5.05 250.58-6.68 251.58-8.3 251.58-10.35L251.58-10.35Q251.58-12.45 250.63-14.08 249.68-15.7 248.1-16.65 246.53-17.6 244.58-17.6L244.58-17.6Q242.78-17.6 241.33-16.9 239.88-16.2 238.93-14.98 237.98-13.75 237.58-12.15L237.58-12.15 237.58-8.7Q237.83-7.1 238.78-5.85 239.73-4.6 241.15-3.9 242.58-3.2 244.23-3.2ZM272.18 0.5L272.18 0.5Q268.63 0.5 266.08-0.93 263.53-2.35 262.15-4.83 260.78-7.3 260.78-10.5L260.78-10.5Q260.78-13.55 262.33-16.05 263.88-18.55 266.48-20.05 269.08-21.55 272.28-21.55L272.28-21.55Q276.38-21.55 279.08-19.15 281.78-16.75 282.73-12.55L282.73-12.55 265.68-6.55 264.58-9.3 278.58-14.4 277.58-13.75Q276.98-15.4 275.58-16.63 274.18-17.85 271.93-17.85L271.93-17.85Q270.03-17.85 268.53-16.93 267.03-16 266.18-14.4 265.33-12.8 265.33-10.75L265.33-10.75Q265.33-8.6 266.23-6.98 267.13-5.35 268.7-4.42 270.28-3.5 272.28-3.5L272.28-3.5Q273.63-3.5 274.9-4 276.18-4.5 277.28-5.3L277.28-5.3 279.43-1.85Q277.88-0.8 275.95-0.15 274.03 0.5 272.18 0.5ZM294.37 0.4L294.37 0.4Q292.17 0.4 290.1-0.38 288.02-1.15 286.67-2.7L286.67-2.7 288.62-5.4Q289.92-4.15 291.3-3.53 292.67-2.9 294.02-2.9L294.02-2.9Q295.02-2.9 295.87-3.15 296.72-3.4 297.25-3.98 297.77-4.55 297.77-5.55L297.77-5.55Q297.77-6.65 297.05-7.3 296.32-7.95 295.2-8.35 294.07-8.75 292.82-9.1L292.82-9.1Q290.27-9.95 288.92-11.45 287.57-12.95 287.57-15.1L287.57-15.1Q287.57-16.75 288.4-18.18 289.22-19.6 290.85-20.5 292.47-21.4 294.87-21.4L294.87-21.4Q297.02-21.4 298.72-20.88 300.42-20.35 301.92-19.15L301.92-19.15 300.07-16.25Q299.17-17.2 297.92-17.65 296.67-18.1 295.67-18.15L295.67-18.15Q294.82-18.2 294.05-17.9 293.27-17.6 292.77-17.05 292.27-16.5 292.27-15.75L292.27-15.75Q292.27-14.7 292.97-14.05 293.67-13.4 294.8-13.03 295.92-12.65 297.02-12.25L297.02-12.25Q298.57-11.8 299.77-11.05 300.97-10.3 301.7-9.2 302.42-8.1 302.42-6.45L302.42-6.45Q302.42-4.6 301.55-3.03 300.67-1.45 298.9-0.53 297.12 0.4 294.37 0.4Z" opacity="1" transform="matrix(1,0,0,1,0,0)" fill="#000000" class="wordmark-text-0" data-fill-palette-color="quaternary" id="text-0"></path></svg></g></svg></g></svg></g></svg></g><g transform="matrix(1,0,0,1,89.0654062613299,0)"><svg viewBox="0 0 35.02762870449732 35.2174113509423" height="35.2174113509423" width="35.02762870449732"><g><svg xmlns="http://www.w3.org/2000/svg" xmlns:xlink="http://www.w3.org/1999/xlink" version="1.1" x="0" y="0" viewBox="5.242000000000001 5 89.51500017960318 90" enable-background="new 0 0 100 100" xml:space="preserve" height="35.2174113509423" width="35.02762870449732" class="icon-icon-0" data-fill-palette-color="quaternary" id="icon-0"><path fill="#000000" d="M85.434 5H14.566c-5.149 0-9.324 4.175-9.324 9.324v71.352c0 5.148 4.175 9.324 9.324 9.324h70.867c5.149 0 9.324-4.176 9.324-9.324V14.324C94.758 9.175 90.583 5 85.434 5zM41.501 38.479l-0.16 0.16-0.184 0.132c-1.031 0.742-2.207 1.605-3.595 2.642-1.519 1.132-2.852 2.13-4.077 3.049-1.417 1.062-2.783 2.081-4.062 3.03-1.293 0.96-2.515 1.854-3.632 2.659l-0.219 0.157-0.244 0.113c-0.926 0.426-1.86 0.643-2.78 0.643-1.448 0-2.739-0.501-3.731-1.449-1.028-0.979-1.573-2.269-1.573-3.727 0-1.292 0.421-2.52 1.25-3.649l0.245-0.333 0.331-0.249c0.857-0.644 1.871-1.396 3.01-2.233 1.155-0.851 2.302-1.707 3.406-2.546 1.205-0.914 2.374-1.788 3.474-2.598 0.016-0.012 0.031-0.022 0.046-0.034-1.079-0.83-2.211-1.711-3.364-2.618-1.185-0.93-2.346-1.833-3.449-2.683-1.134-0.872-2.09-1.627-2.837-2.244l-0.215-0.177-0.176-0.216c-0.971-1.193-1.463-2.501-1.463-3.887 0-1.432 0.527-2.716 1.526-3.715 0.999-0.998 2.306-1.526 3.778-1.526 0.736 0 1.527 0.166 2.417 0.508l0.229 0.087 0.21 0.127c0.298 0.179 0.717 0.479 1.789 1.367 0.719 0.596 1.605 1.295 2.641 2.081 1.077 0.819 2.23 1.721 3.43 2.679 1.164 0.932 2.281 1.804 3.321 2.593 1.092 0.832 2.029 1.56 2.786 2.164 0.748 0.6 1.229 0.983 1.441 1.153 1.882 1.487 2.278 3.235 2.278 4.439C43.349 35.406 43.028 36.951 41.501 38.479zM77.405 61.27c-0.808 0.888-1.924 1.512-3.32 1.862l-0.335 0.085H50.133l-0.127-0.012c-2.116-0.194-3.331-1.15-3.977-1.918-0.871-1.039-1.331-2.25-1.331-3.504 0-1.364 0.524-2.634 1.517-3.671 0.974-1.018 2.318-1.607 3.998-1.752l0.119-0.011h23.626l0.351 0.093c1.436 0.376 2.554 1.09 3.326 2.119 0.756 1.007 1.139 2.091 1.139 3.222C78.773 59.077 78.3 60.282 77.405 61.27z" data-fill-palette-color="quaternary"></path></svg></g></svg></g><g></g></svg></g></svg></g></svg></g></svg></g><defs></defs></svg><rect width="342.85155851775386" height="342.85155851775386" fill="none" stroke="none" visibility="hidden"></rect></g></svg></g></svg>